<svg xmlns="http://www.w3.org/2000/svg" viewBox="0 0 64 64">
  <!-- Background circle -->
  <circle cx="32" cy="32" r="32" fill="#6366f1"/>

  <!-- Open book -->
  <!-- Left page -->
  <path d="M14 18 C14 18 22 17 32 22 L32 46 C22 41 14 42 14 42 Z" fill="white" opacity="0.95"/>
  <!-- Right page -->
  <path d="M50 18 C50 18 42 17 32 22 L32 46 C42 41 50 42 50 42 Z" fill="white" opacity="0.8"/>
  <!-- Spine -->
  <rect x="31" y="22" width="2" height="24" fill="#6366f1" opacity="0.4"/>
  <!-- Lines on left page -->
  <line x1="18" y1="28" x2="29" y2="25.5" stroke="#6366f1" stroke-width="1.5" stroke-linecap="round" opacity="0.5"/>
  <line x1="18" y1="33" x2="29" y2="30.5" stroke="#6366f1" stroke-width="1.5" stroke-linecap="round" opacity="0.5"/>
  <line x1="18" y1="38" x2="29" y2="35.5" stroke="#6366f1" stroke-width="1.5" stroke-linecap="round" opacity="0.5"/>
  <!-- Lines on right page -->
  <line x1="46" y1="28" x2="35" y2="25.5" stroke="#4f46e5" stroke-width="1.5" stroke-linecap="round" opacity="0.4"/>
  <line x1="46" y1="33" x2="35" y2="30.5" stroke="#4f46e5" stroke-width="1.5" stroke-linecap="round" opacity="0.4"/>
  <line x1="46" y1="38" x2="35" y2="35.5" stroke="#4f46e5" stroke-width="1.5" stroke-linecap="round" opacity="0.4"/>
</svg>
